<?xml version="1.0" standalone="no"?>
<!DOCTYPE svg PUBLIC "-//W3C//DTD SVG 20010904//EN"
 "http://www.w3.org/TR/2001/REC-SVG-20010904/DTD/svg10.dtd">
<svg version="1.0" xmlns="http://www.w3.org/2000/svg"
 width="700.000000pt" height="700.000000pt" viewBox="0 0 700.000000 700.000000"
 preserveAspectRatio="xMidYMid meet">
<metadata>
Created by potrace 1.11, written by Peter Selinger 2001-2013
</metadata>
<g transform="translate(0.000000,700.000000) scale(0.100000,-0.100000)"
fill="#000000" stroke="none">
<path d="M6265 6222 c-301 -27 -541 -228 -621 -519 -32 -116 -28 -274 9 -387
25 -78 76 -171 127 -234 l27 -33 -62 -92 c-55 -82 -926 -1387 -931 -1395 -1
-2 -28 4 -60 13 -33 9 -68 18 -79 21 -42 10 -202 5 -260 -9 -133 -32 -269
-110 -353 -202 l-49 -55 -149 60 c-82 34 -239 97 -349 142 -110 44 -216 87
-235 95 -19 8 -98 40 -175 72 l-140 57 -7 94 c-12 167 -74 310 -186 432 -59
63 -185 154 -231 165 -14 3 -30 9 -36 13 -5 4 -26 11 -45 16 -19 4 -42 9 -50
12 -50 13 -212 12 -280 -2 -74 -16 -213 -76 -258 -112 -145 -117 -218 -224
-267 -390 -22 -75 -27 -238 -8 -319 17 -79 58 -178 99 -240 l33 -49 -33 -46
c-33 -46 -410 -587 -501 -718 -27 -40 -61 -88 -75 -107 -14 -18 -74 -106 -135
-194 -107 -157 -111 -161 -140 -156 -16 3 -75 9 -131 12 -83 4 -116 1 -185
-16 -233 -59 -416 -227 -493 -453 -25 -75 -28 -97 -31 -208 -8 -312 174 -572
474 -678 68 -24 91 -27 211 -27 141 0 181 8 290 59 228 108 382 337 396 591 9
156 -40 330 -126 443 l-41 53 381 547 c210 301 386 554 393 562 7 8 24 34 40
58 15 23 31 42 35 42 4 0 34 -7 67 -15 94 -22 261 -14 360 18 96 32 211 105
283 180 l52 56 227 -93 c126 -51 237 -96 248 -101 11 -4 22 -9 25 -10 3 -1 22
-9 44 -18 21 -9 40 -17 43 -17 2 0 23 -8 46 -18 23 -11 69 -29 102 -42 33 -13
64 -27 69 -32 6 -4 17 -8 25 -8 9 0 27 -6 41 -13 14 -7 61 -27 105 -45 l80
-32 -1 -58 c-3 -271 196 -550 458 -642 87 -30 115 -35 238 -35 124 0 215 21
310 73 230 125 370 359 370 617 0 130 -41 275 -107 377 l-17 27 503 753 c277
414 510 760 518 770 11 13 21 14 45 7 17 -5 81 -7 142 -6 88 3 126 9 187 29
299 104 485 374 475 688 -4 121 -17 173 -72 286 -87 180 -254 317 -439 363
-58 15 -177 27 -220 23z"/>
</g>
</svg>
